<?xml version="1.0" standalone="no"?>
<!DOCTYPE svg PUBLIC "-//W3C//DTD SVG 20010904//EN"
 "http://www.w3.org/TR/2001/REC-SVG-20010904/DTD/svg10.dtd">
<svg version="1.0" xmlns="http://www.w3.org/2000/svg"
 width="496.000000pt" height="496.000000pt" viewBox="0 0 496.000000 496.000000"
 preserveAspectRatio="xMidYMid meet">
<metadata>
Created by potrace 1.14, written by Peter Selinger 2001-2017
</metadata>
<g transform="translate(0.000000,496.000000) scale(0.100000,-0.100000)"
fill="#000000" stroke="none">
<path d="M1407 4941 c2 -9 -3 -12 -16 -8 -16 4 -18 0 -17 -25 1 -16 -2 -32 -7
-35 -6 -3 -7 -2 -4 3 3 6 -3 16 -15 23 -11 7 -17 8 -13 2 11 -19 14 -52 4 -46
-5 4 -7 10 -4 15 3 5 0 12 -6 16 -7 4 -9 3 -5 -4 3 -6 2 -13 -4 -17 -5 -3 -10
-1 -10 6 0 7 -3 9 -7 5 -4 -4 3 -16 17 -27 18 -14 20 -17 6 -12 -13 4 -17 3
-12 -5 3 -6 2 -13 -3 -16 -5 -4 -13 -1 -17 5 -4 8 -3 9 4 5 8 -5 10 -1 5 9 -9
24 -20 2 -17 -35 2 -24 -2 -30 -18 -30 -10 0 -17 -4 -13 -10 3 -5 13 -6 22 -3
13 5 12 1 -4 -17 -12 -12 -20 -28 -17 -34 3 -6 -2 -2 -11 9 -17 20 -17 20 -10
-4 5 -15 3 -21 -3 -17 -6 4 -8 -2 -5 -14 3 -11 9 -23 14 -26 5 -3 9 -10 9 -17
0 -6 -6 -3 -13 8 -11 14 -16 15 -22 5 -5 -8 -4 -11 2 -7 6 4 13 -4 15 -17 3
-16 1 -23 -7 -20 -6 3 -18 -3 -26 -12 -9 -12 -10 -15 -1 -10 8 5 12 -1 12 -19
0 -14 -4 -24 -9 -21 -5 3 -12 -1 -15 -10 -8 -21 -8 -24 5 -24 5 0 7 5 4 10 -3
6 -1 10 5 10 6 0 8 -10 6 -22 -8 -45 -17 -56 -39 -51 -21 4 -21 4 2 -10 20
-12 21 -15 7 -20 -10 -4 -14 -12 -10 -18 4 -8 3 -9 -5 -5 -8 6 -9 12 -2 20 8
9 7 13 -3 13 -8 0 -13 -7 -11 -16 1 -9 -9 -29 -24 -45 l-26 -30 29 22 c16 12
34 22 40 22 6 0 0 -7 -13 -16 -15 -11 -21 -23 -18 -35 3 -11 0 -22 -5 -26 -6
-3 -8 -1 -5 4 4 6 1 13 -6 16 -10 4 -13 -2 -9 -19 2 -13 8 -22 11 -19 4 2 8
-2 8 -10 0 -12 -4 -12 -20 2 -11 10 -17 13 -14 6 4 -6 0 -16 -10 -22 -11 -6
-13 -11 -5 -11 7 0 10 -4 7 -10 -4 -6 1 -7 12 -4 11 4 14 3 7 -3 -6 -4 -10
-21 -8 -37 3 -25 2 -26 -10 -11 -9 13 -15 15 -20 7 -4 -7 -1 -12 6 -12 10 0
10 -2 -1 -9 -16 -10 -24 -41 -11 -41 15 0 21 18 8 23 -7 3 -3 4 9 4 20 -1 21
-3 7 -18 -8 -9 -12 -24 -8 -35 5 -17 5 -18 -6 -1 -11 17 -31 24 -29 10 1 -5 0
-11 -1 -15 -4 -13 -7 -27 -9 -39 0 -5 -6 -7 -13 -3 -7 5 -8 3 -4 -5 5 -7 18
-16 30 -21 l21 -9 -22 0 c-13 -1 -23 -6 -23 -12 0 -5 5 -7 10 -4 6 3 10 1 10
-5 0 -6 4 -9 9 -5 5 3 12 1 16 -4 3 -6 -5 -8 -19 -5 -14 2 -28 -1 -32 -7 -4
-8 -3 -9 4 -5 7 4 12 2 12 -4 0 -6 5 -8 12 -4 7 4 8 3 4 -5 -4 -6 -12 -9 -17
-6 -5 4 -9 1 -9 -5 0 -6 -6 -8 -12 -4 -10 5 -10 4 -1 -6 6 -7 9 -19 6 -26 -3
-8 0 -14 7 -14 6 0 8 5 4 12 -4 7 -3 8 5 4 9 -6 9 -11 0 -22 -9 -12 -15 -12
-28 -2 -14 11 -14 11 -4 -3 7 -9 9 -20 5 -25 -4 -4 0 -3 9 4 13 10 19 9 30 -5
13 -16 12 -17 -3 -5 -16 12 -17 10 -14 -27 3 -42 -7 -61 -20 -40 -4 7 -3 9 4
5 12 -7 10 19 -2 31 -4 4 -7 3 -6 -2 1 -6 1 -12 0 -15 -7 -19 -7 -39 1 -34 5
3 9 0 9 -6 0 -6 4 -9 8 -6 5 3 9 -1 9 -9 0 -10 -5 -11 -19 -4 -10 5 -18 6 -18
1 0 -5 10 -14 23 -20 12 -6 16 -11 8 -11 -11 -1 -11 -4 0 -18 13 -17 13 -17
-6 -3 -11 8 -23 20 -27 25 -5 6 -8 6 -8 -2 0 -6 5 -15 10 -18 8 -5 8 -11 1
-19 -6 -7 -8 -16 -4 -20 4 -3 8 -20 9 -37 2 -27 1 -29 -14 -17 -15 12 -16 11
-3 -4 7 -10 17 -16 21 -13 5 3 12 0 16 -6 5 -8 3 -9 -6 -4 -10 6 -12 4 -7 -8
8 -22 -2 -22 -20 1 -11 13 -11 10 1 -14 8 -17 12 -35 8 -39 -4 -5 0 -4 8 0 13
8 13 7 1 -8 -9 -11 -10 -17 -2 -17 6 0 11 -5 11 -11 0 -6 -6 -9 -14 -6 -10 4
-12 0 -8 -15 4 -15 7 -17 13 -6 5 8 9 9 9 2 0 -6 -7 -17 -16 -25 -14 -12 -14
-14 2 -26 10 -7 15 -16 11 -19 -3 -4 -2 -16 4 -28 10 -20 10 -20 -5 -2 -11 13
-16 15 -16 6 0 -7 8 -22 18 -33 9 -11 12 -17 5 -13 -7 4 -19 -4 -30 -21 -10
-15 -22 -32 -28 -36 -6 -5 -2 -6 8 -3 11 3 16 2 12 -4 -3 -6 0 -10 7 -10 7 -1
2 -7 -12 -15 -22 -13 -16 -21 13 -16 4 0 7 -4 7 -9 0 -6 -10 -9 -23 -6 -17 3
-23 -1 -24 -16 -2 -19 -1 -19 11 -3 10 15 12 11 15 -29 1 -31 -2 -46 -10 -46
-7 0 -9 -3 -6 -6 9 -9 38 16 31 27 -3 5 2 6 11 3 14 -6 14 -8 0 -18 -8 -6 -17
-22 -20 -35 -2 -13 -1 -20 3 -17 4 4 7 13 7 19 0 5 7 12 15 14 9 3 11 1 5 -4
-14 -12 -18 -53 -5 -53 6 0 8 5 5 10 -3 6 -1 10 5 10 6 0 8 -10 4 -27 -4 -16
-3 -25 1 -21 4 4 13 2 20 -5 10 -9 9 -14 -4 -24 -14 -10 -12 -11 8 -6 19 5 23
3 18 -9 -3 -9 -1 -20 5 -26 6 -6 2 -15 -14 -27 -19 -15 -20 -16 -3 -10 11 3
24 7 29 8 15 3 15 -31 -1 -50 -8 -10 -12 -12 -8 -6 11 23 14 54 4 48 -5 -4 -7
-11 -4 -16 4 -5 2 -9 -4 -9 -7 0 -8 -14 -2 -38 1 -1 11 2 24 8 18 9 17 7 -6
-14 -15 -14 -23 -26 -18 -26 19 0 26 5 23 14 -2 5 4 4 12 -4 18 -14 22 -25 6
-15 -5 3 -10 -1 -10 -9 0 -9 4 -16 9 -16 6 0 9 -9 8 -20 -1 -11 -5 -20 -10
-20 -5 0 -7 6 -4 14 3 8 0 19 -7 25 -9 7 -12 3 -11 -19 0 -15 4 -26 9 -22 5 3
7 -2 3 -11 -4 -10 -2 -16 6 -14 7 1 13 -10 15 -25 2 -16 8 -28 13 -28 6 0 7
-5 4 -11 -5 -6 -11 -4 -19 7 -11 15 -13 15 -13 0 0 -9 4 -16 9 -16 4 0 8 -9 8
-21 0 -13 4 -18 12 -13 9 5 9 2 -1 -9 -12 -16 -9 -21 12 -18 4 1 0 -10 -9 -24
-16 -25 -31 -36 -18 -12 4 6 3 9 -1 4 -14 -12 -12 -58 2 -53 7 3 15 0 19 -6 4
-7 3 -8 -4 -4 -12 7 -15 -1 -15 -36 0 -14 -4 -15 -18 -8 -15 9 -17 7 -14 -12
3 -12 10 -26 16 -32 9 -8 9 -5 0 11 -9 19 -9 22 3 17 17 -6 15 -29 -4 -47 -10
-10 -11 -9 -5 2 5 10 4 12 -4 7 -6 -4 -9 -11 -6 -16 3 -4 2 -10 -2 -13 -5 -2
-3 -3 3 -1 7 1 11 -17 10 -47 0 -27 -3 -44 -7 -37 -4 6 -6 20 -4 30 2 10 -1
18 -7 18 -5 0 -8 -6 -5 -14 3 -8 1 -17 -6 -20 -9 -3 -8 -5 1 -5 8 -1 10 -6 5
-13 -12 -19 -12 -68 0 -68 6 0 7 -3 3 -7 -4 -5 -13 -8 -19 -8 -5 0 -12 -7 -14
-15 -4 -12 -3 -12 5 -2 7 11 11 10 17 -5 11 -25 14 -63 4 -57 -4 2 -6 13 -4
24 2 12 0 18 -6 15 -5 -4 -7 -10 -4 -15 3 -5 0 -12 -6 -16 -8 -4 -4 -11 12
-20 13 -7 18 -13 10 -14 -7 0 -11 -6 -8 -14 4 -10 1 -13 -9 -9 -10 4 -11 9 -4
18 7 8 6 12 -3 12 -9 0 -13 -13 -12 -39 1 -29 -2 -37 -12 -34 -20 8 -16 -2 6
-14 17 -9 19 -7 15 15 -2 14 0 25 4 25 11 0 9 -40 -2 -58 -4 -7 -2 -20 5 -30
10 -12 8 -12 -9 2 -22 19 -22 19 -16 1 6 -14 4 -16 -6 -10 -9 5 -11 4 -6 -4 4
-6 13 -8 19 -5 8 5 8 3 -1 -7 -18 -20 -15 -33 6 -18 15 13 16 12 3 -3 -12 -17
-9 -23 12 -19 5 1 6 -3 2 -9 -4 -7 -12 -7 -25 0 -28 15 -37 12 -14 -5 10 -8
15 -15 10 -15 -5 0 -3 -6 3 -14 14 -16 -2 -32 -20 -21 -13 9 -8 -27 6 -37 6
-4 2 -8 -8 -8 -14 0 -16 -4 -7 -19 7 -14 7 -22 0 -26 -8 -5 -7 -12 2 -23 12
-15 11 -16 -5 -3 -14 11 -21 11 -29 3 -7 -7 -8 -12 -4 -12 5 0 3 -7 -4 -15 -9
-11 -10 -18 -1 -28 6 -8 7 -18 3 -22 -4 -5 2 -5 13 -1 15 5 17 4 8 -5 -13 -13
-36 -3 -27 13 4 7 2 8 -4 4 -9 -5 -9 -13 -1 -29 12 -21 11 -21 -8 -4 -16 14
-20 14 -20 2 0 -8 4 -12 8 -10 3 3 9 -6 11 -18 3 -17 0 -23 -15 -24 -16 -2
-17 0 -5 15 12 15 11 16 -4 4 -17 -13 -14 -47 3 -36 5 3 6 -3 2 -12 -5 -12 -3
-15 6 -9 8 4 6 -4 -4 -19 -16 -24 -14 -31 8 -27 5 1 5 -4 2 -10 -5 -8 -10 -8
-18 0 -6 6 -18 11 -26 11 -14 0 -14 -2 -1 -10 8 -5 15 -20 15 -33 1 -19 -2
-23 -17 -19 -10 2 -18 -1 -18 -7 0 -7 4 -9 10 -6 5 3 10 1 10 -4 0 -6 -4 -11
-9 -11 -4 0 -7 -11 -6 -25 2 -14 -1 -22 -6 -19 -12 7 -41 -15 -34 -27 3 -4 -4
-13 -15 -19 -11 -6 -18 -16 -14 -22 4 -7 13 -2 24 12 12 16 19 19 25 11 4 -7
4 -15 1 -18 -3 -4 -6 0 -6 8 0 8 -7 4 -16 -9 -9 -13 -22 -21 -30 -18 -8 3 -13
2 -13 -2 4 -25 -5 -40 -31 -56 -17 -9 -28 -22 -25 -27 4 -5 1 -9 -4 -9 -6 0
-11 -5 -11 -11 0 -5 4 -8 9 -4 5 3 12 2 15 -3 8 -13 -27 -11 -44 2 -13 10 -13
9 -1 -7 7 -9 10 -17 6 -17 -4 0 -3 -6 3 -13 9 -10 6 -17 -8 -29 -10 -9 -21
-14 -23 -11 -3 3 -4 -2 -3 -11 1 -8 6 -19 11 -23 4 -5 5 -1 0 7 -5 8 -4 12 0
7 5 -4 10 -14 11 -22 2 -12 -2 -12 -17 -5 -11 7 -19 7 -19 1 0 -5 6 -11 13
-14 9 -3 9 -8 -2 -18 -12 -12 -13 -12 -6 1 7 12 6 13 -7 3 -8 -7 -19 -9 -23
-5 -5 4 -5 1 -1 -6 4 -7 11 -10 16 -7 9 6 21 -35 14 -47 -3 -4 -11 -8 -17 -8
-7 0 -6 4 3 10 12 7 12 11 2 20 -6 5 -10 7 -7 3 3 -3 -3 -15 -12 -25 -10 -11
-13 -19 -8 -18 20 4 35 0 35 -11 0 -6 -7 -8 -16 -5 -8 3 -13 2 -9 -3 3 -5 -1
-12 -7 -15 -7 -3 -2 -4 12 -1 14 3 19 2 12 -1 -7 -3 -17 -15 -23 -27 -9 -18
-9 -20 2 -9 7 6 18 12 23 12 7 0 8 -3 1 -8 -5 -4 -15 -22 -22 -40 -10 -29 -10
-32 3 -22 19 17 18 5 -2 -14 -8 -9 -11 -16 -5 -16 6 0 11 -7 11 -15 0 -8 -6
-15 -12 -15 -10 0 -9 -3 1 -9 8 -5 11 -16 6 -30 -5 -16 -3 -20 9 -15 9 3 16 1
16 -6 0 -6 -4 -8 -10 -5 -6 3 -10 1 -10 -5 0 -6 -4 -8 -10 -5 -5 3 -10 1 -10
-5 0 -6 8 -10 17 -8 14 2 18 -5 19 -32 1 -19 4 -45 7 -57 3 -13 2 -25 -3 -28
-5 -3 -7 3 -5 14 2 10 -3 27 -11 38 -9 10 -12 12 -8 4 4 -8 8 -26 10 -40 1
-14 3 -27 4 -28 7 -8 5 -30 -4 -41 -5 -7 -5 -12 0 -11 23 4 30 -3 30 -31 0
-32 -5 -36 -24 -20 -9 7 -9 7 -2 -2 14 -17 12 -31 -2 -22 -9 5 -9 2 1 -9 7 -9
19 -17 25 -17 6 0 5 4 -3 9 -8 5 -9 11 -3 15 5 3 12 -1 16 -9 3 -8 -3 -19 -12
-25 -13 -8 -14 -10 -2 -9 38 4 52 -1 42 -14 -8 -9 -5 -12 12 -12 22 0 22 1 9
25 -13 22 -13 23 -1 8 8 -10 18 -14 22 -10 4 4 7 2 6 -3 -5 -21 0 -36 10 -30
6 4 8 11 5 16 -3 5 1 6 9 3 9 -3 16 -10 16 -16 0 -5 -4 -6 -10 -3 -6 3 -7 -1
-4 -10 6 -14 8 -14 20 2 7 10 14 14 14 9 0 -5 8 -2 18 5 9 7 14 9 10 5 -4 -5
-3 -15 3 -23 9 -9 8 -13 0 -13 -6 0 -11 -5 -11 -11 0 -6 5 -7 12 -2 7 4 27 8
43 9 17 1 37 4 45 8 10 4 19 -1 25 -16 11 -24 35 -37 35 -18 0 6 -4 8 -10 5
-6 -3 -7 1 -3 10 4 13 8 14 14 4 6 -10 11 -10 23 0 9 8 16 9 16 3 0 -5 -7 -12
-15 -16 -8 -3 -15 -11 -15 -18 0 -9 3 -9 10 2 5 8 12 11 16 7 4 -3 1 -15 -7
-24 -12 -16 -11 -16 8 0 13 11 19 26 16 35 -4 14 -3 15 5 2 6 -8 8 -18 6 -22
-3 -4 0 -8 6 -8 6 0 9 -4 6 -8 -2 -4 4 -8 15 -8 19 0 19 1 3 13 -10 7 -13 13
-7 13 5 0 20 -9 33 -20 28 -24 37 -26 19 -3 -13 15 -12 15 9 4 12 -6 22 -8 22
-4 0 4 8 -4 17 -17 10 -14 17 -29 15 -33 -1 -5 2 -6 7 -3 5 4 11 1 14 -6 2 -7
3 -6 2 3 -1 9 6 21 16 28 15 9 19 8 17 -1 -2 -7 3 -12 9 -11 7 2 12 -3 10 -10
-1 -6 5 -12 13 -12 18 0 39 -25 33 -40 -2 -7 2 -12 9 -12 23 -1 43 -8 51 -18
5 -6 7 -4 4 5 -2 8 -10 14 -16 12 -7 -1 -10 2 -7 7 8 13 42 6 72 -14 23 -15
35 -33 14 -20 -5 3 -10 1 -10 -4 0 -15 6 -14 38 5 25 15 25 15 8 0 -17 -13
-17 -16 -4 -16 9 0 18 -3 21 -7 2 -5 2 -3 1 4 -2 7 1 15 7 18 5 4 8 1 7 -7 -2
-7 4 -12 14 -10 9 1 20 -3 24 -9 4 -8 3 -9 -4 -5 -18 11 -14 0 5 -15 11 -10
14 -10 9 -1 -4 7 -2 12 5 12 8 0 8 5 -2 18 -7 9 -1 6 14 -7 23 -21 29 -22 44
-10 11 9 14 10 9 1 -4 -7 -1 -15 9 -18 13 -5 13 -9 3 -23 -10 -13 -10 -14 2
-3 15 13 34 17 26 4 -9 -15 99 -7 112 8 12 13 13 13 9 -1 -4 -12 5 -15 54 -14
32 1 61 4 65 8 4 3 -7 5 -24 2 -21 -2 -35 2 -44 13 -11 15 -11 15 4 4 13 -10
17 -10 21 0 4 10 6 10 6 1 1 -19 21 -16 21 3 0 14 1 14 16 0 23 -24 27 -19 8
9 -15 23 -15 25 0 19 18 -7 49 13 40 27 -3 6 8 7 25 4 16 -3 33 -1 36 5 4 6
-1 7 -12 3 -15 -6 -16 -4 -6 8 8 10 9 19 3 25 -6 6 -3 10 10 11 11 1 18 -2 15
-7 -4 -6 2 -7 11 -3 10 4 13 8 7 10 -7 3 -9 11 -6 19 4 10 0 12 -13 8 -11 -4
-16 -4 -12 1 4 4 20 8 35 9 16 1 29 4 31 9 5 16 1 19 -13 7 -9 -7 -15 -8 -15
-2 0 14 21 20 53 17 23 -3 26 -1 17 10 -17 20 -3 36 25 31 14 -3 27 -1 30 4 3
5 -3 7 -14 5 -11 -2 -25 4 -32 13 -11 14 -11 15 0 5 7 -6 20 -9 28 -6 11 4 10
8 -4 19 -17 13 -17 14 1 7 11 -4 17 -2 14 3 -4 5 0 18 8 29 8 10 14 14 14 9 0
-6 -5 -15 -12 -22 -9 -9 -9 -12 1 -12 7 0 9 -5 5 -12 -4 -7 2 -5 14 6 17 14
19 23 11 37 -7 15 -6 17 6 13 8 -4 15 -11 15 -18 0 -6 5 -3 11 7 6 10 8 26 4
35 -5 13 -2 12 16 -4 l22 -19 -13 25 c-12 23 -12 24 4 11 14 -12 16 -12 10 3
-5 12 -2 15 12 10 15 -5 16 -4 4 4 -8 6 -18 8 -22 6 -4 -3 -8 0 -8 5 0 6 6 11
14 11 8 0 16 3 19 8 2 4 2 2 1 -5 -2 -6 3 -14 11 -17 9 -3 12 1 10 15 -3 15 0
19 10 16 7 -3 16 0 19 8 3 10 0 12 -12 8 -14 -6 -15 -5 -2 9 9 9 18 12 21 6
13 -20 49 4 49 33 0 10 5 21 12 25 7 4 8 3 4 -4 -4 -7 -1 -12 8 -12 9 0 15 5
13 11 -1 6 4 14 12 17 9 3 11 0 6 -9 -5 -8 0 -6 12 4 11 9 22 14 26 11 3 -3 4
5 1 18 -2 12 -2 17 2 11 9 -19 24 -16 17 4 -4 11 -3 14 6 9 6 -4 18 -2 26 4 8
7 15 9 15 5 0 -4 6 -2 13 4 8 6 17 8 20 4 4 -3 7 2 7 12 0 17 -1 17 -19 1 -17
-15 -19 -15 -25 -1 -3 9 -11 13 -17 9 -8 -4 -9 -3 -5 5 6 9 11 9 22 0 11 -9
18 -8 31 2 9 8 18 13 20 12 1 -2 4 -3 6 -2 19 6 36 6 32 0 -2 -4 2 -8 10 -8
10 0 11 5 5 16 -7 14 -1 16 36 14 24 0 41 3 38 8 -3 5 1 9 9 9 16 0 30 27 22
41 -4 5 2 6 11 2 14 -5 16 -3 10 13 -5 14 -4 16 4 8 9 -9 9 -18 0 -35 -10 -21
-10 -22 3 -7 8 10 18 14 22 10 5 -4 5 1 2 10 -3 9 1 22 11 30 10 8 13 8 9 1
-4 -6 -3 -14 3 -18 5 -3 10 -1 10 4 0 6 4 11 10 11 5 0 7 -8 4 -17 -5 -17 -5
-17 6 0 6 9 8 23 4 30 -4 6 -4 9 1 5 4 -4 14 -3 21 3 7 5 25 12 41 15 20 3 24
2 13 -5 -8 -5 -18 -7 -24 -4 -5 3 -6 1 -3 -4 4 -6 -1 -10 -10 -9 -9 0 -18 -6
-20 -14 -4 -13 -3 -13 5 -1 9 12 13 13 27 1 9 -7 15 -9 13 -4 -2 5 2 10 7 12
16 5 27 31 19 44 -4 7 -3 8 4 4 7 -4 12 -2 12 3 0 17 41 6 56 -14 8 -10 14
-14 14 -9 0 6 -6 16 -12 23 -11 11 -10 13 5 8 11 -4 17 -1 17 9 0 8 5 12 10 9
6 -4 7 -12 3 -18 -5 -8 -2 -8 9 0 8 7 19 9 23 5 5 -4 5 -1 1 6 -4 7 -12 10
-17 7 -5 -4 -6 2 -2 11 4 11 8 13 11 6 2 -7 11 -12 19 -12 13 0 13 2 2 17 -13
15 -12 15 17 0 23 -12 34 -13 42 -5 8 8 15 8 27 -2 10 -8 15 -9 15 -1 0 6 -4
11 -9 11 -6 0 -9 8 -8 19 1 19 20 22 34 6 4 -4 3 -5 -4 -1 -6 3 -15 1 -19 -6
-4 -7 -4 -10 1 -6 4 4 15 2 23 -5 13 -10 14 -9 7 2 -6 11 -4 13 7 9 8 -4 21
-2 29 4 11 8 10 9 -4 4 -11 -4 -16 -2 -11 5 3 6 16 8 29 5 15 -4 25 -1 29 9 3
8 9 14 13 13 4 -2 9 2 10 7 1 6 12 13 25 16 13 3 22 11 20 18 -1 7 2 10 8 6 5
-3 10 0 10 7 1 7 7 2 14 -11 11 -19 14 -20 19 -8 3 9 14 14 26 12 10 -2 27 5
37 16 14 16 15 21 3 36 -13 16 -12 17 3 5 14 -11 18 -10 27 7 9 17 16 19 36
11 18 -7 24 -6 22 3 -1 7 6 11 17 10 13 -1 15 2 7 10 -7 7 -15 6 -26 -3 -10
-8 -15 -9 -15 -1 0 10 37 24 56 20 20 -4 23 2 14 28 -9 26 -9 27 5 9 15 -20
15 -20 30 0 8 10 15 23 15 27 0 5 4 6 8 3 4 -2 14 0 22 6 12 8 12 9 -2 4 -10
-3 -18 -1 -18 4 0 10 13 14 40 11 13 -2 13 -1 0 8 -12 9 -13 11 -1 11 8 0 11
3 8 6 -4 4 -13 1 -22 -6 -10 -8 -15 -9 -15 -1 0 6 11 13 25 17 14 3 22 10 19
15 -3 5 -11 6 -17 2 -7 -4 -7 -1 1 9 15 18 46 13 35 -6 -3 -6 -2 -7 2 -3 12
10 15 38 4 31 -5 -3 -9 4 -9 15 0 11 5 23 12 27 7 5 9 2 6 -8 -4 -8 -1 -15 6
-15 6 0 12 17 14 39 4 75 6 88 15 88 5 0 7 -7 3 -15 -3 -9 0 -15 10 -15 8 0
13 4 9 9 -3 6 2 14 11 19 15 8 15 10 0 15 -11 5 -15 3 -10 -5 4 -7 3 -8 -5 -4
-6 4 -9 12 -5 17 3 5 9 7 14 4 5 -3 8 4 7 15 -1 11 -5 20 -9 20 -4 0 -8 6 -8
13 1 6 10 1 20 -12 22 -25 26 -21 10 10 -9 15 -7 19 7 20 16 0 16 1 -2 9 -21
9 -21 9 8 15 11 2 22 7 25 11 4 4 -1 4 -12 0 -13 -4 -17 -2 -13 8 3 8 1 17 -6
20 -7 4 2 4 18 1 23 -4 26 -3 15 5 -13 9 -13 11 0 20 8 5 11 10 5 10 -5 0 -3
5 5 11 13 9 12 10 -2 5 -10 -3 -20 -1 -23 4 -4 6 1 10 9 10 9 0 16 3 17 8 0 4
2 15 4 25 2 11 0 16 -3 12 -4 -4 -7 -11 -7 -16 0 -5 -3 -9 -7 -9 -5 0 -12 0
-18 0 -5 0 -1 9 10 20 21 21 28 46 8 34 -7 -5 -8 -3 -4 5 6 9 13 8 28 -6 20
-18 21 -18 7 4 -11 18 -11 25 -1 35 6 6 12 16 12 21 0 5 -9 -1 -20 -14 -10
-13 -19 -19 -20 -13 0 5 5 15 12 22 9 9 7 17 -8 34 -19 22 -19 22 0 8 18 -14
19 -13 14 8 -5 16 -2 22 10 22 14 0 15 2 2 9 -8 6 -18 7 -24 4 -5 -3 -6 -1 -2
5 3 6 15 9 26 7 12 -2 18 0 15 6 -4 5 -11 7 -16 4 -10 -7 -12 8 -2 19 9 9 13
37 4 32 -4 -3 -13 5 -21 17 -12 20 -12 21 4 8 9 -8 19 -11 23 -7 4 3 -2 13
-13 22 -10 8 -13 12 -5 8 7 -3 17 -1 21 6 11 18 1 42 -14 33 -7 -4 -7 -1 1 9
7 8 10 17 8 20 -10 9 -14 49 -5 43 5 -3 11 -1 14 4 4 5 -2 12 -11 14 -17 4
-17 5 0 6 9 0 17 6 17 12 0 5 -6 7 -12 3 -7 -4 -10 -4 -6 1 4 4 2 15 -5 24
-11 14 -10 14 6 2 15 -12 19 -12 31 5 15 20 15 52 0 44 -5 -3 -8 -13 -8 -22 1
-10 -3 -18 -7 -18 -13 0 -2 52 13 62 19 11 30 10 22 -4 -5 -7 -3 -8 6 -3 10 6
9 11 -5 22 -11 7 -24 13 -29 13 -6 0 -3 5 7 11 20 11 23 30 5 25 -7 -1 -9 -1
-5 2 4 2 2 11 -4 19 -10 11 -10 14 2 11 9 -2 14 5 13 20 -2 26 11 29 25 5 6
-10 11 -13 11 -6 0 6 -4 14 -9 18 -6 3 -8 14 -6 25 2 11 0 20 -6 20 -5 0 -9 7
-9 15 0 8 5 15 12 15 6 0 3 7 -8 15 -18 13 -18 14 6 8 24 -5 24 -5 5 10 -14
11 -17 18 -8 28 13 17 13 50 1 66 -5 7 -5 14 2 18 10 6 11 5 14 -14 0 -5 4
-12 9 -15 4 -3 5 -3 2 1 -3 3 0 12 6 20 6 7 8 13 3 13 -5 0 -2 5 6 10 12 8 12
10 1 10 -11 0 -11 3 0 18 13 15 12 16 -4 3 -9 -8 -20 -11 -24 -7 -3 3 -1 6 5
6 7 0 12 7 12 15 0 8 6 14 13 12 12 -2 13 14 4 69 -5 35 -1 45 28 63 19 11 19
12 -4 5 -16 -4 -21 -3 -17 5 4 6 2 11 -4 11 -6 0 -8 5 -5 10 3 6 11 10 16 10
6 0 7 -4 4 -10 -3 -5 -1 -10 4 -10 13 0 14 17 2 24 -11 7 -2 46 10 46 5 0 4
12 -1 26 -7 18 -7 23 1 18 8 -5 10 1 7 20 -4 18 -1 26 8 26 17 0 17 10 0 32
-7 10 -17 14 -21 10 -4 -4 0 5 9 20 10 15 15 32 12 37 -4 5 -2 12 4 16 6 4 7
12 4 18 -4 7 -3 8 1 4 12 -10 15 -38 4 -31 -14 8 -11 -2 5 -15 11 -9 13 -6 11
18 -1 16 -6 35 -11 42 -6 12 -5 12 9 0 10 -8 20 -11 24 -7 3 3 1 6 -5 6 -7 0
-12 5 -12 11 0 7 -8 18 -17 26 -11 9 -12 12 -3 7 8 -4 24 -14 35 -23 18 -15
19 -15 7 0 -6 9 -9 18 -6 21 14 14 20 78 11 115 -7 28 9 39 30 21 15 -12 15
-11 4 9 -6 12 -17 21 -24 19 -6 -1 -9 -1 -4 1 4 3 4 10 0 16 -4 8 -1 7 9 -1
13 -10 17 -10 21 2 3 8 -1 20 -9 27 -14 11 -13 13 1 21 8 5 13 14 10 19 -4 5
-11 6 -17 3 -7 -5 -8 -2 -3 5 5 9 10 10 18 2 6 -6 18 -11 26 -11 13 1 13 2 -1
11 -20 11 -24 29 -7 29 5 0 8 -4 5 -8 -3 -5 1 -9 9 -9 10 0 12 4 5 12 -6 8 -5
18 5 31 8 10 15 23 15 28 0 6 -7 1 -15 -10 -13 -18 -14 -18 -8 5 4 15 2 22 -4
18 -5 -3 -10 0 -10 8 0 8 4 12 9 9 4 -3 8 2 8 10 0 9 5 16 11 16 5 0 7 4 4 10
-11 18 -14 51 -4 45 5 -4 7 -10 4 -15 -3 -4 3 -14 13 -21 16 -13 16 -13 2 5
-14 18 -13 19 5 12 15 -5 13 -1 -7 17 -29 25 -40 49 -13 27 9 -7 19 -9 23 -5
4 4 1 10 -5 12 -7 3 -13 9 -13 14 0 6 5 7 10 4 6 -3 10 -2 10 4 0 5 -6 12 -12
14 -7 3 -3 6 10 6 12 1 22 6 22 12 0 6 -9 8 -22 4 -15 -4 -19 -3 -10 3 7 5 12
13 11 18 -1 5 0 12 1 17 1 4 3 13 4 20 1 6 9 11 18 9 9 -1 19 2 23 8 3 6 0 7
-9 4 -9 -3 -16 -1 -16 5 0 10 14 15 33 12 5 -1 6 3 2 9 -3 6 -12 7 -18 3 -8
-5 -8 -2 0 9 7 8 10 18 6 21 -3 4 -1 7 5 7 7 0 12 5 12 11 0 8 -5 8 -15 -1 -8
-7 -12 -17 -8 -24 3 -6 2 -7 -2 -3 -5 4 -10 15 -11 23 -1 9 0 13 3 10 3 -3 12
2 19 12 9 13 10 20 1 31 -7 8 -7 12 -2 9 7 -4 11 30 10 103 0 60 -4 109 -8
109 -5 0 -6 4 -2 9 3 5 1 12 -4 16 -6 3 -8 -5 -5 -20 2 -14 0 -25 -5 -25 -5 0
-8 8 -6 18 1 9 -2 25 -7 35 -15 29 -19 67 -8 67 6 0 9 -4 6 -9 -7 -11 20 -8
31 3 4 4 2 6 -6 4 -7 -1 -16 3 -19 11 -3 9 0 11 9 6 8 -5 5 1 -5 13 -21 24
-32 29 -20 10 4 -7 3 -8 -4 -4 -7 4 -12 2 -12 -4 0 -7 7 -9 18 -5 14 5 15 4 5
-6 -19 -19 -41 4 -25 24 16 19 3 30 -17 15 -12 -10 -12 -8 2 8 22 26 22 35 0
27 -10 -4 -4 5 12 20 27 24 28 26 7 22 -12 -2 -27 -7 -33 -11 -6 -3 -3 6 7 21
l18 28 -24 -8 c-25 -8 -25 -8 -5 11 11 11 16 16 11 12 -16 -12 -28 -9 -19 5 9
15 14 41 6 33 -3 -3 -19 7 -34 23 -15 16 -30 26 -34 23 -3 -4 -3 1 0 9 3 9 -3
23 -16 35 -13 10 -19 14 -16 7 10 -16 -23 -10 -33 7 -4 7 -6 20 -3 29 4 11 0
10 -11 -4 -17 -20 -17 -20 -11 2 3 12 1 24 -4 28 -6 3 -8 0 -5 -8 3 -8 0 -18
-5 -22 -6 -3 -8 -11 -5 -17 4 -7 2 -8 -5 -4 -9 6 -9 11 1 24 11 13 10 15 -4 9
-10 -3 -18 -2 -18 3 0 5 -21 8 -47 6 -27 -1 -53 1 -60 6 -7 6 -19 6 -30 -1
-11 -6 -13 -11 -5 -11 7 0 10 -5 7 -10 -5 -8 -11 -7 -21 1 -12 10 -13 9 -7 -7
6 -17 5 -17 -10 -5 -9 7 -17 9 -17 3 0 -14 26 -23 48 -16 15 5 15 4 1 -5 -9
-6 -26 -8 -38 -6 -18 3 -20 1 -12 -9 8 -10 7 -17 -6 -27 -9 -8 -14 -9 -10 -3
4 7 0 14 -7 17 -10 4 -13 0 -11 -14 3 -16 1 -18 -9 -10 -10 8 -17 7 -27 -5 -8
-10 -13 -19 -11 -21 1 -1 2 -6 2 -10 0 -5 -4 -2 -9 6 -7 11 -10 9 -15 -7 -5
-15 -12 -19 -24 -15 -15 6 -15 5 1 -11 21 -22 12 -43 -11 -24 -13 11 -15 10
-9 -4 4 -12 0 -19 -14 -23 -17 -6 -18 -9 -7 -23 8 -10 9 -13 1 -9 -6 4 -14 3
-17 -2 -3 -5 -15 -7 -26 -4 -25 7 -16 23 10 18 12 -2 18 0 15 5 -3 5 3 13 12
19 16 9 16 10 -4 8 -12 0 -21 -4 -20 -8 1 -4 -1 -6 -4 -5 -13 3 -37 -26 -32
-39 3 -10 -1 -13 -17 -10 -18 3 -20 2 -10 -10 15 -18 24 -20 14 -3 -4 7 -3 8
5 4 8 -6 9 -12 2 -20 -6 -7 -9 -16 -6 -20 3 -3 -1 -2 -7 4 -20 17 -31 11 -26
-15 4 -21 3 -23 -13 -14 -13 6 -19 6 -19 -1 0 -5 -5 -9 -11 -8 -6 2 -14 -4
-16 -12 -4 -13 -3 -13 7 0 10 13 11 13 7 0 -2 -8 -13 -15 -25 -14 -12 0 -19
-3 -16 -7 2 -4 -1 -9 -8 -12 -7 -2 -2 -2 12 0 21 3 22 2 8 -7 -11 -7 -15 -17
-11 -28 6 -16 6 -16 -11 1 -21 20 -27 22 -24 5 2 -7 -4 -12 -12 -10 -12 3 -13
1 -2 -9 14 -15 16 -33 2 -24 -5 3 -10 2 -10 -4 0 -5 6 -12 13 -14 9 -4 9 -6
-1 -6 -7 -1 -10 -7 -7 -13 4 -7 -1 -4 -11 7 -17 21 -17 20 3 -32 5 -15 3 -14
-13 2 -10 12 -14 14 -9 6 8 -12 6 -13 -10 -8 -19 7 -19 6 -2 -7 21 -16 22 -26
2 -26 -8 0 -14 -3 -14 -7 4 -23 -3 -35 -16 -29 -8 3 -14 2 -14 -2 3 -19 -3
-22 -23 -11 -23 12 -23 12 -3 -8 14 -14 23 -17 28 -9 6 7 7 6 4 -4 -2 -8 -12
-14 -21 -12 -9 2 -24 -2 -34 -8 -15 -10 -15 -10 3 -6 11 3 25 2 30 -2 12 -9
16 -44 4 -36 -5 3 -9 13 -9 22 -1 15 -2 15 -15 -1 -7 -11 -12 -28 -10 -38 2
-11 0 -17 -6 -14 -5 4 -7 10 -4 15 3 4 -2 10 -10 13 -9 4 -12 1 -8 -9 4 -10 0
-12 -13 -7 -14 5 -13 1 6 -16 14 -12 19 -20 13 -16 -7 3 -13 1 -13 -4 0 -6
-11 -11 -25 -11 -14 0 -25 -5 -25 -11 0 -5 -5 -7 -12 -3 -7 4 -8 3 -4 -5 6 -9
11 -9 21 -1 9 8 15 8 20 0 4 -6 1 -9 -7 -8 -7 2 -12 -3 -10 -10 2 -10 -2 -10
-19 -1 -15 8 -19 8 -15 0 4 -6 2 -11 -4 -11 -6 0 -9 -4 -5 -10 3 -5 13 -6 22
-3 13 5 13 3 -3 -13 -10 -11 -20 -16 -22 -12 -2 4 -11 8 -20 8 -11 0 -13 -3
-6 -8 13 -8 15 -44 2 -36 -5 3 -5 10 -2 16 4 7 2 8 -4 4 -6 -3 -9 -20 -7 -36
3 -22 0 -27 -12 -23 -12 5 -12 7 -1 14 9 6 9 9 1 9 -21 0 -27 -23 -9 -35 15
-11 15 -13 1 -19 -11 -4 -14 -2 -9 7 4 6 -7 -1 -23 -16 -31 -29 -35 -41 -19
-66 7 -11 5 -13 -7 -8 -10 3 -17 2 -17 -4 0 -6 -5 -7 -12 -3 -6 4 -8 3 -4 -4
3 -6 -1 -15 -10 -20 -15 -8 -14 -10 2 -16 10 -4 15 -4 11 0 -8 9 11 34 27 34
6 0 4 -5 -4 -10 -8 -5 -15 -15 -15 -22 0 -8 -12 -12 -30 -11 -17 0 -24 -1 -17
-4 6 -2 12 -9 12 -15 0 -6 -7 -8 -14 -5 -10 4 -13 1 -9 -8 3 -8 10 -12 16 -8
6 3 7 1 3 -6 -6 -9 -11 -9 -22 0 -12 9 -13 9 -9 -3 4 -10 -1 -17 -15 -21 -12
-3 -19 -10 -16 -16 4 -5 2 -12 -4 -16 -5 -3 -10 -1 -10 6 0 7 -3 9 -6 6 -4 -4
-1 -13 5 -21 10 -12 7 -14 -26 -11 -37 3 -37 3 -13 -10 19 -11 21 -14 8 -15
-10 0 -18 -4 -18 -8 0 -4 -16 -14 -35 -21 -19 -7 -33 -17 -30 -22 4 -5 12 -3
20 5 8 8 24 12 35 9 27 -7 25 -15 -2 -11 -15 2 -22 -2 -20 -10 1 -8 -2 -11 -8
-7 -5 3 -10 0 -10 -7 0 -9 -3 -10 -8 -2 -4 6 -18 15 -32 19 -25 7 -25 7 -5
-10 15 -13 16 -15 3 -12 -9 3 -19 3 -22 -1 -10 -10 -37 -11 -30 -1 5 9 1 10
-51 13 -16 0 -35 5 -42 9 -8 5 -11 1 -8 -12 3 -15 -1 -18 -12 -14 -8 3 -19 0
-24 -8 -7 -12 -9 -12 -9 0 0 10 -3 11 -13 2 -10 -8 -14 -7 -14 4 0 8 5 11 11
8 6 -3 7 -2 3 2 -12 14 -36 14 -31 1 5 -13 -41 -14 -53 -1 -5 4 -2 5 6 0 10
-6 12 -4 7 4 -5 7 -11 10 -14 7 -3 -3 -11 -1 -19 6 -11 8 -12 7 -7 -6 3 -9 1
-16 -5 -16 -6 0 -11 6 -11 13 0 8 -12 19 -27 26 -22 10 -25 10 -17 -1 5 -8 1
-5 -9 6 -10 10 -15 26 -12 35 3 9 -8 0 -25 -19 -17 -19 -29 -30 -25 -23 6 13
-28 36 -39 26 -6 -6 -10 12 -7 30 1 5 -3 5 -9 2 -6 -4 -9 -13 -6 -20 3 -10 -2
-12 -17 -9 -12 2 -24 9 -25 14 -2 6 -10 3 -17 -7 -13 -17 -13 -17 -12 2 1 11
7 24 12 28 6 5 4 7 -5 4 -8 -2 -14 -10 -13 -16 2 -6 -4 -11 -12 -11 -8 0 -14
5 -12 11 1 6 -6 13 -16 14 -17 3 -17 2 -1 -23 17 -26 17 -27 -2 -12 -10 8 -22
20 -26 25 -5 6 -8 4 -8 -5 0 -13 -2 -13 -9 0 -6 8 -7 18 -4 24 3 5 1 6 -5 2
-7 -4 -12 -2 -12 5 0 7 -3 9 -6 6 -4 -4 -1 -13 6 -22 7 -9 10 -18 6 -22 -3 -3
-6 -1 -6 6 0 9 -8 11 -21 8 -15 -4 -18 -2 -10 7 7 8 4 16 -12 26 -20 12 -21
12 -9 -3 8 -9 9 -18 3 -21 -15 -9 -19 4 -15 53 1 27 -1 39 -6 31 -4 -7 -7 -18
-6 -24 2 -6 1 -8 -1 -3 -3 4 -9 5 -14 1 -5 -3 -9 -1 -9 5 0 5 6 11 13 14 10 4
10 7 0 18 -11 11 -13 11 -13 -1 0 -7 -2 -11 -4 -9 -3 3 -1 21 3 41 8 35 7 36
-16 32 -21 -4 -22 -2 -11 9 7 8 18 13 24 10 7 -2 15 0 18 5 3 5 -2 9 -12 8
-11 -1 -16 5 -14 18 2 11 -1 15 -8 11 -6 -3 -10 -3 -9 2 1 4 1 10 -1 13 -1 3
-3 23 -5 45 -3 33 -1 36 8 20 15 -27 17 -45 6 -45 -6 0 -7 -5 -4 -11 9 -14 15
-7 21 25 2 14 0 26 -5 26 -5 0 -11 15 -13 34 -3 28 -1 33 14 31 10 -2 21 2 24
8 4 7 3 9 -1 4 -5 -4 -17 1 -28 10 -11 10 -17 12 -13 6 4 -7 2 -13 -3 -13 -14
0 -14 17 -1 25 6 4 8 11 4 16 -3 5 -9 7 -13 5 -4 -3 -8 1 -8 9 0 8 4 12 9 9
12 -8 10 10 -4 26 -7 8 -3 6 10 -5 20 -16 22 -17 16 -2 -4 10 -1 17 6 17 9 0
9 4 -1 17 -16 19 -16 23 3 34 9 6 10 9 1 9 -7 0 -10 7 -7 15 5 11 1 14 -12 9
-14 -4 -15 -3 -6 4 19 13 19 16 2 38 -14 18 -14 18 2 5 10 -7 15 -17 12 -22
-3 -5 0 -8 8 -7 7 2 12 -3 10 -10 -1 -8 2 -11 8 -7 8 5 6 13 -5 25 -15 17 -15
19 1 28 11 6 13 11 5 16 -14 9 -15 46 0 46 5 0 7 5 3 11 -4 8 -9 7 -15 -2 -5
-8 -9 -9 -10 -4 -2 12 -1 13 6 54 3 19 1 31 -5 31 -6 0 -8 -4 -5 -10 4 -6 -1
-7 -11 -3 -11 4 -13 8 -6 11 7 2 9 9 6 14 -4 6 -2 8 4 4 6 -3 13 -3 16 2 7 12
-27 11 -35 0 -3 -5 -6 5 -6 21 0 27 2 29 14 13 13 -15 13 -15 3 5 -5 12 -9 28
-8 35 2 8 -6 13 -19 12 -15 0 -20 3 -14 10 19 24 3 76 -23 76 -6 0 -4 -5 4
-10 17 -10 23 -50 8 -50 -6 0 -7 7 -4 16 4 10 -3 24 -16 36 -13 11 -17 16 -9
12 11 -5 12 -1 7 22 -4 16 -7 35 -8 42 -1 6 -5 12 -10 12 -5 0 -6 6 -2 13 6 9
4 9 -8 -1 -13 -10 -18 -10 -24 -1 -4 8 -3 9 4 5 8 -5 12 2 12 18 0 23 -9 31
-32 27 -5 0 -8 3 -8 9 0 5 4 10 8 10 5 0 8 14 8 30 0 18 -4 29 -10 27 -6 -2
-19 4 -28 14 -16 17 -16 18 4 25 16 5 18 8 7 15 -8 4 -19 3 -26 -3 -11 -9 -12
-6 -3 16 13 34 13 46 0 26 -8 -13 -11 -13 -26 2 -17 16 -16 18 6 26 l24 9 -22
5 c-12 4 -20 2 -16 -3 3 -5 1 -9 -3 -9 -12 0 -33 37 -26 44 4 3 11 6 17 6 6 0
4 -5 -4 -11 -10 -7 -11 -9 -2 -7 20 5 10 23 -12 20 -18 -2 -18 -1 0 25 12 20
13 25 2 16 -18 -15 -29 -7 -22 15 4 13 2 12 -6 -2 -10 -15 -9 -20 1 -27 11 -7
11 -9 1 -9 -7 0 -17 11 -24 25 -6 13 -15 22 -21 18 -6 -4 -7 -1 -2 7 6 10 11
9 22 -5 7 -11 13 -15 13 -9 -1 15 -26 44 -33 37 -4 -3 -7 -1 -7 6 0 7 -5 9
-12 5 -8 -5 -9 -2 -5 9 4 12 1 17 -10 17 -9 0 -13 3 -10 7 4 3 -3 14 -15 22
-13 9 -24 23 -26 31 -1 9 5 5 16 -8 17 -23 19 -23 32 -5 8 10 11 15 6 11 -12
-10 -48 11 -41 23 4 5 1 8 -7 7 -7 -2 -12 3 -10 11 2 11 0 12 -11 3 -10 -9
-17 -9 -26 1 -11 10 -11 7 -1 -13 11 -21 11 -23 -1 -14 -17 13 -45 12 -42 -2
1 -5 -7 -10 -17 -10 -10 0 -16 4 -14 8 3 4 0 8 -5 8 -6 0 -11 -5 -11 -12 0 -6
-3 -8 -6 -5 -4 4 -1 14 7 24 8 9 9 14 2 10 -6 -4 -13 -4 -16 0 -2 5 -2 2 0 -6z
m138 -10 c3 -5 1 -12 -5 -16 -5 -3 -10 1 -10 9 0 18 6 21 15 7z m-278 -258 c0
-9 -4 -10 -14 -2 -7 6 -13 12 -13 14 0 1 6 2 13 2 8 0 14 -6 14 -14z m2760
-115 c-3 -8 -6 -5 -6 6 -1 11 2 17 5 13 3 -3 4 -12 1 -19z m-87 8 c0 -3 -4 -8
-10 -11 -5 -3 -10 -1 -10 4 0 6 5 11 10 11 6 0 10 -2 10 -4z m-2125 -46 c-3
-5 -12 -10 -18 -10 -7 0 -6 4 3 10 19 12 23 12 15 0z m2355 -14 c0 -2 -9 -6
-20 -9 -11 -3 -18 -1 -14 4 5 9 34 13 34 5z m-367 -30 c4 -10 1 -13 -8 -9 -8
3 -12 9 -9 14 7 12 11 11 17 -5z m-39 -35 c3 -5 -1 -11 -9 -14 -9 -4 -12 -1
-8 9 6 16 10 17 17 5z m466 -22 c0 -5 -4 -9 -8 -9 -5 0 -9 7 -9 15 0 8 4 12 9
9 4 -3 8 -9 8 -15z m-2356 -55 c3 -8 2 -12 -4 -9 -6 3 -10 10 -10 16 0 14 7
11 14 -7z m1596 -214 c0 -5 -5 -10 -11 -10 -5 0 -7 5 -4 10 3 6 8 10 11 10 2
0 4 -4 4 -10z m-2410 -50 c0 -5 -5 -10 -11 -10 -5 0 -7 5 -4 10 3 6 8 10 11
10 2 0 4 -4 4 -10z m-2 -33 c8 -10 6 -13 -11 -14 -12 0 -16 1 -9 4 6 3 10 9 6
14 -8 14 2 11 14 -4z m3277 -15 c-3 -3 -11 0 -18 7 -9 10 -8 11 6 5 10 -3 15
-9 12 -12z m-2347 -50 c2 -7 -1 -12 -8 -12 -6 0 -8 5 -4 12 5 8 2 9 -10 5 -11
-4 -15 -3 -11 4 8 12 27 7 33 -9z m-22 -107 c1 -9 -4 -11 -14 -7 -10 4 -12 7
-4 10 7 2 9 9 5 15 -3 7 -2 8 2 4 5 -4 10 -14 11 -22z m4 -35 c0 -5 -7 -7 -15
-4 -8 4 -15 8 -15 10 0 2 7 4 15 4 8 0 15 -4 15 -10z m-954 -177 c-3 -3 -1
-15 5 -27 8 -17 7 -16 -10 4 -19 24 -19 46 0 34 6 -3 8 -8 5 -11z m5 -60 c13
-16 12 -17 -3 -4 -10 7 -18 15 -18 17 0 8 8 3 21 -13z m2080 -11 c-11 -4 -11
-6 0 -13 10 -6 7 -8 -8 -6 -21 1 -21 2 -6 19 9 10 19 15 22 12 3 -4 0 -9 -8
-12z m-4 -38 c-3 -3 -12 -4 -19 -1 -8 3 -5 6 6 6 11 1 17 -2 13 -5z m-2072
-14 c-3 -5 -12 -10 -18 -10 -7 0 -6 4 3 10 19 12 23 12 15 0z m3205 -100 c6
-11 8 -20 6 -20 -3 0 -10 9 -16 20 -6 11 -8 20 -6 20 3 0 10 -9 16 -20z
m-3206 -18 c2 -4 -5 -9 -17 -9 -17 -2 -19 0 -7 7 18 12 18 12 24 2z m1941 -52
c3 -5 1 -10 -4 -10 -6 0 -11 5 -11 10 0 6 2 10 4 10 3 0 8 -4 11 -10z m-1968
-102 c2 -17 0 -19 -7 -8 -5 8 -6 18 -4 22 8 12 10 10 11 -14z m1387 14 c3 -5
-1 -9 -9 -9 -8 0 -12 4 -9 9 3 4 7 8 9 8 2 0 6 -4 9 -8z m294 -35 c7 -5 12 -3
12 4 0 7 3 10 6 6 3 -3 3 -11 -1 -17 -5 -8 -11 -7 -23 2 -13 11 -15 10 -9 -4
9 -24 0 -23 -13 1 -10 20 2 24 28 8z m1492 -47 c0 -5 -5 -10 -11 -10 -5 0 -7
5 -4 10 3 6 8 10 11 10 2 0 4 -4 4 -10z m-5 -49 c3 -5 2 -12 -3 -15 -5 -3 -9
1 -9 9 0 17 3 19 12 6z m-3114 -128 c13 -16 12 -17 -3 -4 -10 7 -18 15 -18 17
0 8 8 3 21 -13z m3066 -79 c-3 -3 -12 -4 -19 -1 -8 3 -5 6 6 6 11 1 17 -2 13
-5z m-2990 -230 c-3 -3 -12 -4 -19 -1 -8 3 -5 6 6 6 11 1 17 -2 13 -5z m2927
-77 c-9 -5 -18 -6 -21 -3 -4 3 -1 6 5 6 7 0 12 8 12 18 0 14 2 15 10 2 6 -10
4 -17 -6 -23z m-47 -152 c0 -8 -4 -12 -9 -9 -5 3 -6 10 -3 15 9 13 12 11 12
-6z m-2927 -255 c-7 -5 -9 -13 -5 -20 5 -8 4 -11 -3 -6 -16 10 -11 45 6 39 10
-5 11 -8 2 -13z m10 -64 c0 -3 -4 -8 -10 -11 -5 -3 -10 -1 -10 4 0 6 5 11 10
11 6 0 10 -2 10 -4z m2844 -264 c3 -5 -1 -9 -9 -9 -8 0 -12 4 -9 9 3 4 7 8 9
8 2 0 6 -4 9 -8z m23 -28 c-3 -3 -12 -4 -19 -1 -8 3 -5 6 6 6 11 1 17 -2 13
-5z m-2988 -205 c-6 -12 -13 -18 -16 -15 -3 3 -1 12 5 19 7 8 8 18 4 22 -4 5
-1 5 6 1 9 -5 9 -12 1 -27z m2945 -100 c-3 -5 -10 -7 -15 -3 -5 3 -7 10 -3 15
3 5 10 7 15 3 5 -3 7 -10 3 -15z m-29 -38 c3 -5 2 -12 -3 -15 -5 -3 -9 1 -9 9
0 17 3 19 12 6z m-3035 -211 c0 -5 -5 -10 -11 -10 -5 0 -7 5 -4 10 3 6 8 10
11 10 2 0 4 -4 4 -10z m-91 -142 c-16 -31 -16 -31 -23 -13 -3 9 -2 14 3 11 5
-3 11 1 15 9 3 8 8 15 11 15 3 0 0 -10 -6 -22z m2935 -53 c-4 -8 -11 -12 -16
-9 -6 4 -5 10 3 15 19 12 19 11 13 -6z m-43 -42 c13 -16 12 -17 -3 -4 -10 7
-18 15 -18 17 0 8 8 3 21 -13z m-2931 -18 c-14 -17 -30 -20 -30 -4 0 5 4 8 9
4 5 -3 12 -1 16 5 3 5 9 10 12 10 3 0 0 -7 -7 -15z m2788 -92 c-9 -11 -13 -12
-16 -3 -3 9 -7 9 -13 -1 -7 -11 -9 -10 -9 4 0 14 5 17 21 12 16 -5 19 -4 14 5
-5 9 -4 11 4 6 9 -6 9 -11 -1 -23z m-53 -2 c3 -5 2 -12 -3 -15 -5 -3 -9 1 -9
9 0 17 3 19 12 6z m-100 -51 c3 -6 -1 -7 -9 -4 -18 7 -21 14 -7 14 6 0 13 -4
16 -10z m-25 -15 c0 -12 -19 -12 -23 0 -4 9 -1 12 9 8 7 -3 14 -7 14 -8z m-65
-13 c-3 -3 -11 0 -18 7 -9 10 -8 11 6 5 10 -3 15 -9 12 -12z m-81 -43 c-3 -5
-10 -7 -15 -3 -5 3 -7 10 -3 15 3 5 10 7 15 3 5 -3 7 -10 3 -15z m-443 -172
c-13 -13 -43 -19 -35 -6 3 5 12 9 20 9 9 0 12 5 8 12 -5 7 -3 8 5 3 9 -5 10
-10 2 -18z m-254 -117 c-2 -11 -6 -22 -9 -26 -4 -3 -5 2 -3 13 2 10 4 21 4 26
1 4 3 7 6 7 3 0 4 -9 2 -20z m-1821 -75 c1 -8 -1 -17 -5 -19 -4 -3 -7 6 -7 19
0 25 8 25 12 0z m1731 5 c-5 -29 -12 -33 -28 -13 -9 11 -10 14 -1 9 7 -4 15
-1 18 8 9 22 14 20 11 -4z m-159 -155 c-3 -3 -9 2 -12 12 -6 14 -5 15 5 6 7
-7 10 -15 7 -18z m-1347 -50 c10 4 19 2 19 -3 0 -8 -19 -9 -52 -3 -5 0 -8 9
-8 19 1 16 1 16 11 -1 7 -12 17 -16 30 -12z m1213 -71 c3 -8 2 -12 -4 -9 -6 3
-10 10 -10 16 0 14 7 11 14 -7z m-889 -26 c5 4 5 1 1 -6 -6 -10 -11 -10 -22
-1 -8 6 -14 14 -14 16 0 3 6 0 13 -6 8 -6 18 -7 22 -3z m127 -80 c-7 -7 -12
-8 -12 -2 0 14 12 26 19 19 2 -3 -1 -11 -7 -17z m652 -9 c-8 -14 -21 -11 -21
5 0 8 6 12 14 9 7 -3 10 -9 7 -14z m-44 -33 c0 -3 -4 -8 -10 -11 -5 -3 -10 -1
-10 4 0 6 5 11 10 11 6 0 10 -2 10 -4z m-250 -46 c7 11 9 10 7 -8 -2 -27 -8
-28 -38 -2 -24 21 -24 21 -1 8 19 -11 24 -11 32 2z"/>
<path d="M1458 4953 c-10 -2 -18 -9 -18 -14 0 -12 17 -12 25 1 4 6 11 7 17 4
7 -4 8 -2 4 4 -4 7 -8 11 -9 11 -1 -1 -10 -3 -19 -6z"/>
<path d="M1611 4874 c0 -11 3 -14 6 -6 3 7 2 16 -1 19 -3 4 -6 -2 -5 -13z"/>
<path d="M1630 4846 c0 -2 7 -7 16 -10 8 -3 12 -2 9 4 -6 10 -25 14 -25 6z"/>
<path d="M1245 4740 c3 -5 8 -10 11 -10 2 0 4 5 4 10 0 6 -5 10 -11 10 -5 0
-7 -4 -4 -10z"/>
<path d="M1195 4620 c-3 -6 1 -7 9 -4 18 7 21 14 7 14 -6 0 -13 -4 -16 -10z"/>
<path d="M3950 4616 c0 -2 7 -9 15 -16 13 -11 14 -10 9 4 -5 14 -24 23 -24 12z"/>
<path d="M1796 4568 c3 -5 10 -6 15 -3 13 9 11 12 -6 12 -8 0 -12 -4 -9 -9z"/>
<path d="M4121 4544 c0 -11 3 -14 6 -6 3 7 2 16 -1 19 -3 4 -6 -2 -5 -13z"/>
<path d="M1833 4495 c0 -8 4 -12 9 -9 4 3 8 9 8 15 0 5 -4 9 -8 9 -5 0 -9 -7
-9 -15z"/>
<path d="M1176 4485 c-3 -8 -1 -15 3 -15 5 0 11 7 15 15 3 8 1 15 -3 15 -5 0
-11 -7 -15 -15z"/>
<path d="M4200 4481 c0 -6 4 -13 10 -16 6 -3 7 1 4 9 -7 18 -14 21 -14 7z"/>
<path d="M3675 4410 c3 -5 8 -10 11 -10 2 0 4 5 4 10 0 6 -5 10 -11 10 -5 0
-7 -4 -4 -10z"/>
<path d="M1890 4396 c0 -8 4 -17 9 -20 5 -4 7 3 4 14 -6 23 -13 26 -13 6z"/>
<path d="M4286 4278 c3 -4 9 -8 15 -8 5 0 9 4 9 8 0 5 -7 9 -15 9 -8 0 -12 -4
-9 -9z"/>
<path d="M1068 4223 c7 -3 16 -2 19 1 4 3 -2 6 -13 5 -11 0 -14 -3 -6 -6z"/>
<path d="M4305 4180 c-4 -6 3 -10 14 -10 25 0 27 6 6 13 -8 4 -17 2 -20 -3z"/>
<path d="M1990 4086 c0 -2 7 -7 16 -10 8 -3 12 -2 9 4 -6 10 -25 14 -25 6z"/>
<path d="M3357 4035 c-4 -8 -3 -16 1 -19 4 -3 9 4 9 15 2 23 -3 25 -10 4z"/>
<path d="M998 3853 c7 -3 16 -2 19 1 4 3 -2 6 -13 5 -11 0 -14 -3 -6 -6z"/>
<path d="M3235 3849 c-3 -4 2 -6 10 -5 21 3 28 13 10 13 -9 0 -18 -4 -20 -8z"/>
<path d="M1972 3791 c7 -9 13 -18 15 -20 1 -2 1 5 0 16 0 11 -7 20 -14 20 -10
0 -10 -4 -1 -16z"/>
<path d="M4303 3744 c4 -4 2 -13 -4 -21 -6 -7 -10 -13 -8 -14 37 -7 40 -7 29
6 -8 10 -8 14 2 17 7 3 5 7 -7 12 -11 4 -16 4 -12 0z"/>
<path d="M955 3681 c-3 -5 -2 -12 3 -15 5 -3 9 1 9 9 0 17 -3 19 -12 6z"/>
<path d="M1990 3599 c0 -5 5 -7 10 -4 6 3 10 8 10 11 0 2 -4 4 -10 4 -5 0 -10
-5 -10 -11z"/>
<path d="M973 3405 c0 -8 4 -12 9 -9 5 3 6 10 3 15 -9 13 -12 11 -12 -6z"/>
<path d="M2245 3361 c-3 -5 -2 -12 3 -15 5 -3 9 1 9 9 0 17 -3 19 -12 6z"/>
<path d="M2306 3361 c-3 -5 5 -16 19 -25 22 -14 25 -15 25 -1 0 8 -3 14 -7 14
-20 -3 -34 2 -28 11 3 6 4 10 1 10 -3 0 -7 -4 -10 -9z"/>
<path d="M4210 3360 c0 -5 7 -6 17 -3 12 5 14 3 8 -7 -5 -9 -4 -11 4 -6 6 4 9
12 6 17 -8 12 -35 12 -35 -1z"/>
<path d="M980 3339 c0 -5 5 -7 10 -4 6 3 10 8 10 11 0 2 -4 4 -10 4 -5 0 -10
-5 -10 -11z"/>
<path d="M2475 3321 c-3 -5 -2 -12 3 -15 5 -3 9 1 9 9 0 17 -3 19 -12 6z"/>
<path d="M4184 3265 c3 -20 26 -44 26 -27 0 7 -5 12 -11 12 -5 0 -8 4 -4 9 3
5 1 12 -4 15 -5 4 -8 -1 -7 -9z"/>
<path d="M4116 3013 c-4 -9 -4 -14 0 -10 4 4 13 -1 21 -11 12 -15 13 -14 2 8
-16 33 -16 33 -23 13z"/>
<path d="M1039 2978 c-7 -23 -4 -35 7 -35 9 0 11 4 4 12 -5 7 -7 15 -3 18 3 4
3 7 0 7 -4 0 -7 -1 -8 -2z"/>
<path d="M4106 2844 c-23 -23 -20 -30 4 -9 11 10 20 20 20 22 0 7 -9 2 -24
-13z"/>
<path d="M4080 2720 c-9 -6 -10 -10 -3 -10 6 0 15 5 18 10 8 12 4 12 -15 0z"/>
<path d="M1090 2621 c0 -6 4 -13 10 -16 6 -3 7 1 4 9 -7 18 -14 21 -14 7z"/>
<path d="M1090 2580 c0 -6 7 -10 15 -10 8 0 15 2 15 4 0 2 -7 6 -15 10 -8 3
-15 1 -15 -4z"/>
<path d="M4035 2490 c-10 -11 -14 -20 -9 -20 5 0 15 9 22 20 7 11 11 20 9 20
-2 0 -12 -9 -22 -20z"/>
<path d="M1080 2481 c0 -6 4 -12 8 -15 5 -3 9 1 9 9 0 8 -4 15 -9 15 -4 0 -8
-4 -8 -9z"/>
<path d="M1055 2409 c-4 -6 -5 -12 -2 -15 2 -3 7 2 10 11 7 17 1 20 -8 4z"/>
<path d="M4005 2300 c-3 -5 -1 -10 4 -10 6 0 11 5 11 10 0 6 -2 10 -4 10 -3 0
-8 -4 -11 -10z"/>
<path d="M3995 2120 c-3 -5 -1 -10 4 -10 6 0 11 5 11 10 0 6 -2 10 -4 10 -3 0
-8 -4 -11 -10z"/>
<path d="M3966 2062 c-2 -4 1 -18 8 -31 12 -22 13 -22 13 8 0 29 -10 40 -21
23z"/>
<path d="M990 1856 c0 -2 7 -7 16 -10 8 -3 12 -2 9 4 -6 10 -25 14 -25 6z"/>
<path d="M956 1763 c-6 -14 -5 -15 5 -6 7 7 10 15 7 18 -3 3 -9 -2 -12 -12z"/>
<path d="M875 1551 c-3 -5 -2 -12 3 -15 5 -3 9 1 9 9 0 17 -3 19 -12 6z"/>
<path d="M889 1513 c-13 -16 -12 -17 4 -4 9 7 17 15 17 17 0 8 -8 3 -21 -13z"/>
<path d="M871 1457 c-8 -10 -7 -14 2 -14 8 0 14 6 14 14 0 7 -1 13 -2 13 -2 0
-8 -6 -14 -13z"/>
<path d="M3833 1335 c0 -8 4 -12 9 -9 4 3 8 9 8 15 0 5 -4 9 -8 9 -5 0 -9 -7
-9 -15z"/>
<path d="M3715 1129 c-4 -6 -5 -12 -2 -15 2 -3 7 2 10 11 7 17 1 20 -8 4z"/>
<path d="M3551 1028 c-13 -20 -12 -22 1 -11 8 7 18 10 22 6 4 -4 4 0 0 10 -8
21 -6 21 -23 -5z"/>
<path d="M3415 960 c-3 -5 -1 -10 4 -10 6 0 11 5 11 10 0 6 -2 10 -4 10 -3 0
-8 -4 -11 -10z"/>
<path d="M2999 816 c-6 -4 -4 -44 2 -40 4 2 5 12 2 21 -4 10 -2 14 5 9 6 -3
13 -3 16 2 4 7 -17 13 -25 8z"/>
<path d="M2693 645 c0 -8 4 -12 9 -9 5 3 6 10 3 15 -9 13 -12 11 -12 -6z"/>
<path d="M625 640 c-3 -5 -1 -10 4 -10 6 0 11 5 11 10 0 6 -2 10 -4 10 -3 0
-8 -4 -11 -10z"/>
<path d="M2627 636 c-3 -8 -2 -18 3 -21 13 -8 20 9 11 24 -6 10 -10 9 -14 -3z"/>
<path d="M618 613 c7 -3 16 -2 19 1 4 3 -2 6 -13 5 -11 0 -14 -3 -6 -6z"/>
<path d="M634 449 c-4 -7 -3 -9 4 -5 5 3 13 0 15 -6 4 -9 6 -10 6 -1 1 17 -16
25 -25 12z"/>
<path d="M910 270 l-25 -21 28 12 c15 7 27 16 27 21 0 11 -1 10 -30 -12z"/>
<path d="M1230 184 c0 -13 69 -58 77 -51 3 4 -3 10 -13 13 -10 4 -29 16 -41
27 -13 11 -23 16 -23 11z"/>
<path d="M1389 101 c7 -12 17 -18 27 -14 17 6 17 6 -14 22 -22 12 -23 11 -13
-8z"/>
<path d="M1574 31 c1 -16 36 -25 36 -10 0 6 5 7 12 3 7 -4 8 -3 4 4 -5 9 -13
9 -26 2 -13 -7 -20 -6 -23 3 -2 8 -4 7 -3 -2z"/>
</g>
</svg>
